# xmcd CD database file
#
# Track frame offsets:
#	150
#	19891
#	32891
#	42681
#	56805
#	61751
#	70246
#	82820
#	94070
#	114471
#	129066
#	143734
#	155923
#	171303
#	186989
#	199250
#
# Disc length: 2872 seconds
#
# Revision: 0
# Processed by: cddbd v1.5.1PL0 Copyright (c) Steve Scherf et al.
# Submitted via: CDex 1.51
#
DISCID=e50b3610
DTITLE=Mix - Country Hits live
DYEAR=1900
DGENRE=Country
TTITLE0=Bellamy Brothers - If I said you had a beautiful body
TTITLE1=Charly Pride - Kaw - Liga
TTITLE2=Glen Campbell - Gentle on my mind
TTITLE3=Freddy Fender - Mexican rose
TTITLE4=Tammy - Wynette - Your good girls gonna go bad
TTITLE5=Jim Reeves - If you were mine
TTITLE6=Jonny Cash - Jackson
TTITLE7=Kitty wells - On the lonely side of town
TTITLE8=Nitty Gritty Dirt Band - Mr. Bojanles
TTITLE9=Eddy Raven - Who do know in California
TTITLE10=Mel Tillis - Detroit city
TTITLE11=Patty Lovless - Loneley days, loneley nights
TTITLE12=Razzy Bailey - Midnight hauler
TTITLE13=Tanya Tucker - You are so beautiful
TTITLE14=Barbera Mandrell - Mama don't allow no country music here
TTITLE15=Merle Haggard - Mama's hungry eyes
EXTD=
EXTT0=
EXTT1=
EXTT2=
EXTT3=
EXTT4=
EXTT5=
EXTT6=
EXTT7=
EXTT8=
EXTT9=
EXTT10=
EXTT11=
EXTT12=
EXTT13=
EXTT14=
EXTT15=
PLAYORDER=
